<svg xmlns="http://www.w3.org/2000/svg" width="1551.404" height="874.87" viewBox="0 0 1551.404 874.87">
  <g id="wave1" transform="translate(127.103 -42.733)" opacity="0.2">
    <g id="Group_462" data-name="Group 462" transform="translate(-36 13)">
      <path id="Path_574" data-name="Path 574" d="M-91.1,89.8c-.3-.6,20.9,80,59.9,128.7a228.468,228.468,0,0,0,41.8,42.6c23.6,18.6,58.3,35.8,100.3,41.7,84.5,13.7,192.7-19.2,300.6-56.3,54-19.1,109.6-33.9,163.8-34.6,54.1-1.7,105.9,6.3,152.2,17,92.7,22,164.2,51.3,196.1,58.8,31.7,8.8,74.8,18.8,122,23.1,47.2,4.6,98.3,2.8,144.8-5.5,93.4-16.2,166.6-56.8,166.5-56.1,0-.7-73.3,39.5-166.6,55.3-46.5,8.1-97.6,9.7-144.7,5-47.1-4.5-90.2-14.5-121.9-23.3-31.9-7.4-103.4-36.7-196.1-58.8-46.4-10.7-98.2-18.8-152.4-17-54.3.7-110,15.5-164,34.6-107.9,37.1-216,70-300.2,56.3-41.9-5.9-76.4-23-99.9-41.5a227.734,227.734,0,0,1-41.5-42.4C-69.1,169-91.4,89.3-91.1,89.8Z" fill="#c6c6c6"/>
      <path id="Path_575" data-name="Path 575" d="M-89.2,101.1c-.3-.6,21.9,79.4,61.7,126.5a220.673,220.673,0,0,0,42.4,41c23.9,17.7,58.8,33.6,100.7,38.5,84.5,11.6,192.1-22.8,299.9-59.2,54-18.6,109.6-32.5,163.7-32.2,54-.7,105.6,8.4,151.7,19.9,92.2,24,163.5,53.7,195.3,61.4,62.8,19.4,173.1,37.2,266.2,19.2,93.3-15.4,166.4-55.9,166.4-54.9,0-1-73.2,39.1-166.5,54.1-93.2,17.7-203.2-.6-266-20C894.5,287.7,823.3,258,731,234c-46.2-11.5-97.9-20.6-151.9-19.9-54.1-.3-109.9,13.6-163.9,32.3C307.5,282.6,200,317,115.8,305.4c-41.9-4.8-76.5-20.6-100.3-38.3a215.565,215.565,0,0,1-42.2-40.8C-66.3,179.6-89.5,100.5-89.2,101.1Z" fill="#c6c6c6"/>
      <path id="Path_576" data-name="Path 576" d="M-87.3,112.3c-.3-.6,22.9,78.7,63.5,124.2a209.612,209.612,0,0,0,43.1,39.3c24.2,16.9,59.2,31.5,101.1,35.3,84.4,9.4,191.5-26.4,299.2-62,54-18.2,109.6-31.2,163.5-30,53.9.3,105.3,10.5,151.2,22.8,91.8,25.8,162.8,56.1,194.5,64,62.7,19.9,172.6,38.3,265.7,20.9,93.2-14.8,166.2-54.8,166.3-53.8,0-1-73.2,38.7-166.3,53-93.1,17-202.8-1.8-265.4-21.6-31.7-7.9-102.6-38.2-194.5-64-46-12.3-97.5-22.6-151.4-22.8-54-1.3-109.9,11.7-163.8,30-107.8,35.7-214.7,71.4-298.9,62-41.8-3.8-76.7-18.3-100.7-35.1a213.554,213.554,0,0,1-42.9-39.1C-63.4,190.2-87.6,111.8-87.3,112.3Z" fill="#c6c6c6"/>
      <path id="Path_577" data-name="Path 577" d="M-85.4,123.6c-.3-.6,23.9,78,65.4,121.9a206.194,206.194,0,0,0,43.7,37.6c24.4,16,59.6,29.4,101.5,32.1,84.3,7.4,190.9-29.8,298.6-64.8,53.9-17.9,109.6-29.9,163.4-27.7,53.8,1.2,105,12.5,150.7,25.7C829.3,276,900,306.8,931.7,315c62.5,20.3,172.2,39.3,265.2,22.6,93.1-14.1,166.1-53.7,166.1-52.7,0-1-73.2,38.3-166.2,52-92.9,16.3-202.5-3-264.9-23.4-31.6-8.1-102.3-39-193.8-66.6-45.8-13.2-97.1-24.5-150.9-25.8-53.9-2.2-109.8,9.9-163.7,27.7-107.7,35-214.2,72.1-298.3,64.8-41.8-2.7-76.8-16.1-101.1-32a207.154,207.154,0,0,1-43.5-37.4C-60.6,200.8-85.7,123.1-85.4,123.6Z" fill="#c6c6c6"/>
      <path id="Path_578" data-name="Path 578" d="M-83.5,134.9c-.3-.6,24.9,77.3,67.2,119.5a202.658,202.658,0,0,0,44.3,36c24.7,15.1,60,27.3,101.8,29,84.3,5.3,190.3-33.3,297.9-67.5,53.9-17.4,109.6-28.6,163.3-25.4,53.7,2.2,104.7,14.6,150.2,28.7,91,29.3,161.4,60.8,193,69.2,62.3,20.8,171.8,40.3,264.7,24.3,93-13.4,166-52.6,166-51.7,0-1-73.1,37.8-166.1,50.9-92.8,15.6-202.1-4.3-264.4-25-31.5-8.4-101.9-39.9-193-69.2C695.8,239.6,644.8,227.2,591,225c-53.8-3.2-109.7,8-163.6,25.5-107.7,34.2-213.6,72.7-297.6,67.4C88,316.2,52.9,304.1,28.4,289a202.932,202.932,0,0,1-44.1-35.9C-57.7,211.3-83.9,134.4-83.5,134.9Z" fill="#c6c6c6"/>
      <path id="Path_579" data-name="Path 579" d="M-81.7,146.2a454.226,454.226,0,0,0,18.1,43.1c11.7,24.4,30.1,53.5,50.9,73.9a196.742,196.742,0,0,0,44.9,34.3c24.9,14.2,60.3,25.2,102.1,25.9,84.2,3.2,189.7-36.5,297.3-70,53.9-17.2,109.6-27.4,163.2-23.3,53.6,3.2,104.4,16.7,149.7,31.6,90.5,31.1,160.7,63.2,192.2,71.8,62.1,21.3,171.4,41.4,264.2,26,92.9-12.8,165.9-51.5,165.9-50.6,0-.9-73.1,37.4-166,49.8-92.8,15-201.9-5.5-263.9-26.8-31.5-8.6-101.6-40.7-192.2-71.8-45.4-14.9-96.2-28.4-149.9-31.6-53.7-4.2-109.6,6.1-163.5,23.3-107.7,33.5-213.1,73.2-297.1,70-41.7-.7-77-11.7-101.7-25.8A194.706,194.706,0,0,1-12,261.9C-54.8,221.8-82,145.6-81.7,146.2Z" fill="#c6c6c6"/>
      <path id="Path_580" data-name="Path 580" d="M-79.8,157.4a425.879,425.879,0,0,0,18.7,42.5c12.1,24,30.9,52.4,52.1,72a195.65,195.65,0,0,0,45.4,32.6c25.1,13.3,60.6,23.1,102.4,22.8,84,1.3,189.1-39.8,296.7-72.5,53.8-16.8,109.6-26.2,163.1-21,53.5,4.2,104.1,18.7,149.2,34.5,90.1,32.8,160,65.5,191.5,74.4,62,21.8,171.1,42.4,263.8,27.7,92.8-12.1,165.9-50.4,165.9-49.5,0-.9-73.1,37-165.9,48.7-92.7,14.3-201.6-6.7-263.5-28.5-31.4-8.9-101.3-41.6-191.5-74.4-45.2-15.8-95.8-30.3-149.4-34.5-53.6-5.1-109.5,4.3-163.4,21.1C327.6,286,222.6,327,138.8,325.7c-41.7.3-77-9.5-102-22.7A193.54,193.54,0,0,1-8.4,270.6C-51.9,232.3-80.1,156.9-79.8,157.4Z" fill="#c6c6c6"/>
      <path id="Path_581" data-name="Path 581" d="M-77.9,168.7a427.586,427.586,0,0,0,19.3,41.9c12.5,23.6,31.8,51.3,53.3,70.1a189.514,189.514,0,0,0,45.9,30.8c25.3,12.4,60.9,21.1,102.6,19.8,83.9-.7,188.6-43.1,296.2-75.1,53.8-16.4,109.6-24.9,163-18.8,53.4,5.2,103.8,20.8,148.7,37.4,89.7,34.6,159.4,67.9,190.7,77,61.8,22.3,170.7,43.5,263.4,29.5,92.8-11.5,165.8-49.4,165.8-48.4,0-.9-73.2,36.6-165.9,47.6-92.6,13.7-201.3-8-263.1-30.2-31.3-9.1-101-42.4-190.7-77-45-16.6-95.4-32.2-148.9-37.4-53.5-6.1-109.4,2.5-163.3,18.9-107.7,32-212.2,74.3-296,75-41.6,1.2-77-7.4-102.2-19.7A189.706,189.706,0,0,1-4.8,279.4c-21.4-18.7-40.8-45.9-53.4-69.2C-70.9,186.8-77.7,168.6-77.9,168.7Z" fill="#c6c6c6"/>
      <path id="Path_582" data-name="Path 582" d="M-76,180a406.751,406.751,0,0,0,19.9,41.2c12.8,23.1,32.6,50.1,54.4,68,5.4,4.3,20.8,17.9,46.4,29.1,25.5,11.5,61.1,19,102.8,16.9,83.8-2.6,188-46.3,295.6-77.5,53.8-16,109.6-23.7,162.9-16.6,53.3,6.1,103.4,22.8,148.2,40.2,89.2,36.3,158.7,70.3,190,79.6,61.7,22.8,170.4,44.6,263,31.2,92.7-10.8,165.8-48.3,165.8-47.4,0-.9-73.2,36.2-165.8,46.6-92.6,13-201.1-9.2-262.7-32-31.3-9.4-100.7-43.3-190-79.6-44.7-17.4-95-34.1-148.4-40.3-53.4-7-109.4.7-163.2,16.7C335.2,287.4,231,331,147.5,333.6c-41.5,2.2-77-5.4-102.4-16.8-25.5-11.2-40.8-24.7-46.2-29-21.7-17.8-41.5-44.4-54.6-67.2A430.309,430.309,0,0,1-76,180Z" fill="#c6c6c6"/>
      <path id="Path_583" data-name="Path 583" d="M-74.1,191.3a382.854,382.854,0,0,0,20.5,40.6c13.2,22.6,33.4,48.9,55.5,66C7.4,302,23,315.1,48.8,325.3c25.6,10.6,61.3,17.1,102.9,13.9,83.6-4.5,187.4-49.5,295.1-80,53.8-15.6,109.7-22.4,162.8-14.5,53.2,7.1,103.1,24.8,147.6,43,88.8,38,158,72.6,189.3,82.2,61.5,23.3,170.1,45.8,262.7,33,92.7-10.1,165.8-47.2,165.8-46.3,0-.9-73.2,35.7-165.8,45.5-92.5,12.4-200.9-10.5-262.4-33.7-31.2-9.6-100.4-44.2-189.2-82.2-44.5-18.3-94.6-36-147.8-43.1-53.3-8-109.3-1.2-163.1,14.5C339,288.1,235.2,333,151.8,337.5c-41.5,3.1-77-3.4-102.5-13.9C23.6,313.4,8.1,300.4,2.6,296.3c-22-17-42.3-42.8-55.7-65.1A398.916,398.916,0,0,1-74.1,191.3Z" fill="#c6c6c6"/>
      <path id="Path_584" data-name="Path 584" d="M-72.2,202.5a389.13,389.13,0,0,0,21.1,39.9c13.6,22.1,34.2,47.7,56.6,64,5.6,3.9,21.4,16.4,47.3,25.8,25.8,9.7,61.5,15.2,103,11.1,83.4-6.6,186.9-52.5,294.6-82.5,53.8-15.3,109.7-21.2,162.8-12.3,53.1,8.1,102.8,26.8,147.1,45.9,88.4,39.7,157.4,75,188.6,84.8,61.4,23.8,169.8,46.9,262.4,34.7,92.6-9.5,165.8-46.1,165.8-45.2,0-.9-73.3,35.3-165.8,44.4-92.5,11.7-200.7-11.8-262-35.5-31.1-9.8-100.1-45-188.5-84.8-44.3-19.1-94.1-37.8-147.3-45.9-53.1-8.9-109.2-2.9-163.1,12.3-107.8,30-211.2,75.8-294.5,82.5-41.4,4.1-77-1.4-102.7-11C27.3,321.3,11.5,308.8,6,305c-22.3-16.2-43-41.3-56.7-63.1A379,379,0,0,1-72.2,202.5Z" fill="#c6c6c6"/>
      <path id="Path_585" data-name="Path 585" d="M-70.3,213.8A360.707,360.707,0,0,0-48.6,253c14,21.6,35,46.4,57.7,61.9A182.143,182.143,0,0,0,56.8,339c25.9,8.9,61.7,13.2,103.1,8.3,83.3-8.5,186.4-55.6,294.1-84.9,53.9-14.9,109.8-20,162.7-10.2,53,9,102.5,28.8,146.6,48.7,87.9,41.4,156.7,77.3,187.9,87.4,61.3,24.3,169.6,48,262.1,36.5,92.6-8.8,165.9-45,165.8-44.1,0-.9-73.3,35-165.9,43.4-92.4,11.1-200.6-13-261.7-37.3-31.1-10.1-99.8-45.9-187.8-87.4-44.1-19.9-93.7-39.7-146.8-48.7-53-9.9-109.1-4.7-163,10.2-107.8,29.3-210.9,76.4-294,84.9-41.3,4.9-77,.6-102.8-8.2a179.075,179.075,0,0,1-47.5-24c-22.5-15.3-43.7-39.7-57.8-61A392.308,392.308,0,0,1-70.3,213.8Z" fill="#c6c6c6"/>
      <path id="Path_586" data-name="Path 586" d="M-68.4,225.1a348.858,348.858,0,0,0,22.3,38.4c14.3,21.1,35.8,45.2,58.7,59.7a178.659,178.659,0,0,0,48.1,22.4c26,8,61.8,11.3,103.2,5.5,83.1-10.3,185.9-58.7,293.7-87.3,53.9-14.5,109.8-18.8,162.6-8.1,52.8,10,102.1,30.8,146,51.5,87.5,43.1,156,79.8,187.1,90.1,61.1,24.8,169.3,49.2,261.8,38.3,92.6-8.2,165.9-44,165.9-43.1.1-.9-73.4,34.5-165.9,42.3-92.4,10.5-200.4-14.4-261.5-39.1-31-10.3-99.6-46.9-187.1-90-43.9-20.7-93.3-41.5-146.2-51.5-52.9-10.8-109-6.4-163,8.1-107.9,28.6-210.7,77-293.6,87.2-41.3,5.8-76.9,2.5-102.8-5.4-26-7.7-42.2-18.9-47.9-22.3-22.8-14.5-44.3-38-58.8-58.8A370.264,370.264,0,0,1-68.4,225.1Z" fill="#c6c6c6"/>
      <path id="Path_587" data-name="Path 587" d="M-66.5,236.3A334.416,334.416,0,0,0-43.6,274C-29,294.7-7,317.8,16.2,331.6a182.9,182.9,0,0,0,48.5,20.8c26.1,7.2,61.9,9.5,103.2,2.7,82.9-12.1,185.3-61.8,293.2-89.6,53.9-14.1,109.9-17.7,162.6-6,52.7,10.9,101.8,32.7,145.5,54.2,87,44.8,155.4,82.1,186.4,92.7,61,25.3,169.1,50.4,261.6,40.2,92.6-7.5,166-42.9,165.9-42,.1-.9-73.4,34.1-166,41.2-92.4,9.8-200.3-15.6-261.2-40.9-31-10.5-99.3-47.9-186.4-92.7-43.7-21.5-92.8-43.4-145.7-54.3-52.8-11.7-109-8.2-162.9,6-108,27.8-210.4,77.5-293.2,89.6-41.2,6.7-76.9,4.4-102.9-2.7a178.393,178.393,0,0,1-48.2-20.7c-23-13.7-45-36.4-59.8-56.7A319.624,319.624,0,0,1-66.5,236.3Z" fill="#c6c6c6"/>
      <path id="Path_588" data-name="Path 588" d="M-64.6,247.6a333.375,333.375,0,0,0,23.5,36.9c15,20.2,37.4,42.4,60.7,55.4A178.866,178.866,0,0,0,68.4,359c26.2,6.3,62,7.7,103.2,0,82.7-13.9,184.8-64.9,292.8-92,53.9-13.7,110-16.5,162.5-3.9,52.6,11.8,101.4,34.7,144.9,57,86.6,46.4,154.7,84.5,185.7,95.3,60.9,25.8,168.9,51.6,261.4,42,92.6-6.8,166.1-41.8,166-40.9.1-.8-73.5,33.7-166.1,40.1-92.5,9.2-200.2-17-261-42.8-31-10.8-99.1-48.8-185.7-95.3-43.5-22.3-92.4-45.2-145.1-57.1-52.7-12.7-108.9-9.9-162.9,3.9-108.1,27.1-210.2,78.1-292.8,92-41.1,7.6-76.8,6.3-102.9,0a181.315,181.315,0,0,1-48.5-19c-23.2-12.9-45.6-34.7-60.8-54.5A336.5,336.5,0,0,1-64.6,247.6Z" fill="#c6c6c6"/>
      <path id="Path_589" data-name="Path 589" d="M-62.8,258.9A305.02,305.02,0,0,0-38.7,295C-23.4,314.7-.6,336,23,348.2a180.57,180.57,0,0,0,49.1,17.5c26.3,5.5,62.1,5.9,103.2-2.6,82.5-15.6,184.3-68,292.5-94.4,54-13.4,110-15.4,162.5-1.8,52.5,12.8,101.1,36.6,144.3,59.7,86.1,48.1,154.1,86.9,185.1,97.9,30.6,12.5,72.5,26.7,118.7,35.5,46.1,8.9,96.4,12.2,142.5,8.5,92.6-6.3,166.3-40.4,166.1-39.9.1-.5-73.6,33.2-166.1,39.2-46.1,3.5-96.3,0-142.4-9-46.1-8.9-87.9-23.2-118.5-35.7-30.9-11-98.8-49.7-185-97.9-43.3-23.1-91.9-47-144.6-59.8-52.6-13.6-108.8-11.6-162.9,1.8-108.3,26.4-210,78.8-292.4,94.4-41,8.4-76.7,8.1-102.9,2.6a178.107,178.107,0,0,1-48.8-17.4c-23.5-12.1-46.3-33-61.7-52.3C-53.8,275-62.6,258.7-62.8,258.9Z" fill="#c6c6c6"/>
      <path id="Path_590" data-name="Path 590" d="M-60.9,270.2a303.572,303.572,0,0,0,24.7,35.3c15.6,19.1,38.8,39.6,62.6,51a179.686,179.686,0,0,0,49.4,15.9c26.4,4.7,62.2,4.1,103.2-5.2,82.3-17.4,183.8-71.1,292.1-96.7,54-13,110.1-14.3,162.5.2,52.4,13.7,100.8,38.5,143.8,62.4,85.6,49.8,153.4,89.3,184.4,100.6a628.157,628.157,0,0,0,118.5,36.4c46.1,9.2,96.4,12.8,142.5,9.5,92.6-5.7,166.4-39.3,166.3-38.9.1-.5-73.7,32.8-166.3,38.1-46.1,3.2-96.3-.6-142.4-10a629.68,629.68,0,0,1-118.3-36.6c-30.9-11.3-98.6-50.7-184.3-100.5-43.1-23.9-91.5-48.8-144-62.5C581.4,254.7,525.1,256,471,269c-108.4,25.7-209.9,79.4-292.1,96.7C138,375,102.3,375.6,76,370.9a178.7,178.7,0,0,1-49.1-15.8C3.3,343.8-19.9,323.8-35.7,305-51.7,286-60.7,270-60.9,270.2Z" fill="#c6c6c6"/>
      <path id="Path_591" data-name="Path 591" d="M-59,281.4a282.716,282.716,0,0,0,25.3,34.4c16,18.6,39.5,38.2,63.5,48.7a183.167,183.167,0,0,0,49.6,14.3c26.5,3.9,62.2,2.3,103.2-7.8,82.1-19.1,183.3-74.2,291.7-99.1,54.1-12.6,110.2-13.3,162.5,2.2,52.3,14.6,100.4,40.4,143.2,65.1,85.2,51.5,152.8,91.7,183.7,103.3a622.4,622.4,0,0,0,118.4,37.3c46.1,9.6,96.4,13.5,142.5,10.5,92.7-5,166.6-38.2,166.4-37.8.2-.4-73.8,32.4-166.4,37-46.1,2.8-96.4-1.3-142.4-11A641.085,641.085,0,0,1,964,441c-30.8-11.6-98.3-51.7-183.6-103.2-42.9-24.7-91-50.6-143.4-65.2-52.3-15.6-108.7-14.8-162.8-2.2-108.6,25-209.8,80.1-291.8,99.2-40.9,10.1-76.5,11.7-102.9,7.8a184.7,184.7,0,0,1-49.4-14.3c-23.8-10.5-47.4-29.6-63.5-47.8C-49.5,297-58.8,281.2-59,281.4Z" fill="#c6c6c6"/>
      <path id="Path_592" data-name="Path 592" d="M-57.1,292.7a276.706,276.706,0,0,0,25.8,33.6C-15,344.3,9,363,33.1,372.7A184.638,184.638,0,0,0,83,385.3c26.6,3.1,62.3.6,103.1-10.4,82-20.5,182.8-77.4,291.4-101.5,54.1-12.2,110.4-12.3,162.4,4.2,52.2,15.5,100.1,42.3,142.7,67.8,84.7,53.1,152.1,94.1,183,105.9a621.134,621.134,0,0,0,118.3,38.3c46.1,9.9,96.4,14.2,142.5,11.4,92.7-4.3,166.7-37.1,166.6-36.7.2-.4-73.9,32-166.6,36-46.2,2.5-96.4-1.9-142.4-12a627.3,627.3,0,0,1-118.1-38.5C935.1,438.1,867.8,397.2,783,344c-42.6-25.5-90.6-52.4-142.9-67.9-52.2-16.5-108.6-16.4-162.8-4.2-108.8,24.1-209.7,81-291.5,101.5C145,384.3,109.4,386.8,83,383.7a179.65,179.65,0,0,1-49.6-12.6c-24-9.7-47.9-27.9-64.3-45.5A276.463,276.463,0,0,1-57.1,292.7Z" fill="#c6c6c6"/>
      <path id="Path_593" data-name="Path 593" d="M-55.2,304a266.954,266.954,0,0,0,26.4,32.7c16.6,17.5,40.9,35.2,65.2,44.2,6.1,2,23.4,8.9,50.1,11.1,26.6,2.3,62.3-1.1,103-12.8,81.7-22.2,182.3-80.5,291.1-103.9,54.2-11.9,110.5-11.2,162.4,6.1,52.1,16.4,99.7,44.1,142.1,70.4,42.4,26.7,79.9,51.8,111.1,70.5,31.2,18.9,56,31.4,71.2,38.1a608.884,608.884,0,0,0,118.2,39.2c46.1,10.2,96.3,14.8,142.6,12.5,92.8-3.7,166.9-36.1,166.8-35.7.2-.4-74.1,31.6-166.8,34.9-46.2,2.2-96.4-2.6-142.4-13a626.519,626.519,0,0,1-118-39.4c-15.2-6.8-39.9-19.2-71.1-38.1C865.5,402.1,828,377,785.6,350.3c-42.4-26.3-90.1-54.1-142.3-70.5-52.1-17.4-108.6-18-162.8-6.2-109,23.4-209.6,81.8-291.2,103.9-40.7,11.7-76.3,15.1-102.8,12.8a183,183,0,0,1-49.8-11c-24.2-8.9-48.4-26.2-65.1-43.3C-45.3,319-55.1,303.7-55.2,304Z" fill="#c6c6c6"/>
      <path id="Path_594" data-name="Path 594" d="M-53.3,315.3c.1-.3,10,14.9,27,31.8,16.9,16.9,41.5,33.8,66,41.9,6.1,1.8,23.5,8.2,50.3,9.5,26.6,1.6,62.3-2.7,102.9-15.3,81.5-23.9,181.9-83.7,290.8-106.4,54.3-11.5,110.6-10.2,162.5,8,52,17.2,99.4,46,141.6,73,42.1,27.5,79.5,53.2,110.6,72.3,31,19.4,55.8,32.1,71,39a607.81,607.81,0,0,0,118.1,40.2c46,10.6,96.4,15.5,142.6,13.5,92.8-3,167.2-35,167-34.6.2-.4-74.2,31.2-167,33.8-46.2,1.8-96.5-3.3-142.4-14-46-10.5-87.6-26.5-117.9-40.4-15.1-6.9-39.9-19.6-70.9-38.9-31.1-19.1-68.5-44.8-110.6-72.3-42.2-27.1-89.7-55.9-141.8-73.2-52-18.3-108.5-19.6-162.9-8.1C374.4,298,274,357.9,192.6,381.7c-40.6,12.5-76.1,16.8-102.7,15.2a186.685,186.685,0,0,1-50-9.5C15.6,379.3-9,362.9-26,346.4-43.1,329.9-53.2,315-53.3,315.3Z" fill="#c6c6c6"/>
      <path id="Path_595" data-name="Path 595" d="M-51.4,326.5c.1-.3,10.2,14.6,27.5,30.9,17.2,16.3,42.1,32.3,66.7,39.7a184.418,184.418,0,0,0,50.4,8c26.7.9,62.3-4.3,102.9-17.7,81.3-25.5,181.4-86.8,290.6-109,54.3-11.2,110.8-9.2,162.5,9.9,51.9,18.1,99,47.8,141,75.7,41.9,28.3,79.1,54.6,110.1,74.2C931.2,458,956,470.9,971.1,478a604.876,604.876,0,0,0,118,41.2c46,10.9,96.4,16.2,142.7,14.5,92.9-2.3,167.4-33.9,167.2-33.5.2-.4-74.4,30.8-167.2,32.7-46.3,1.5-96.5-3.9-142.5-15a612.678,612.678,0,0,1-117.8-41.4c-15.1-7.1-39.8-20-70.7-39.8-31-19.6-68.2-45.9-110.1-74.2-42-27.9-89.2-57.6-141.2-75.8-51.9-19.2-108.5-21.2-162.9-9.9-109.4,22.2-209.5,83.6-290.7,109-40.5,13.4-76,18.5-102.6,17.6a183.179,183.179,0,0,1-50.2-8c-24.5-7.3-49.3-22.8-66.6-38.8A235.131,235.131,0,0,1-51.4,326.5Z" fill="#c6c6c6"/>
      <path id="Path_596" data-name="Path 596" d="M-49.5,337.8c.1-.3,10.5,14.3,28,29.9,17.5,15.8,42.7,30.8,67.4,37.4a183.724,183.724,0,0,0,50.6,6.5c26.7.2,62.3-5.8,102.8-20,81.1-27.1,180.9-90.1,290.3-111.7,54.4-10.7,110.9-8.2,162.5,11.8,51.8,19,98.7,49.6,140.5,78.3,41.7,29.1,78.7,56.1,109.6,76.1,30.8,20.3,55.5,33.5,70.7,40.7a602.731,602.731,0,0,0,118,42.2c46,11.3,96.4,16.9,142.7,15.5,93-1.6,167.7-32.8,167.5-32.4.2-.3-74.5,30.4-167.5,31.6-46.3,1.2-96.6-4.6-142.6-16a608.6,608.6,0,0,1-117.8-42.4c-15.1-7.3-39.7-20.4-70.6-40.7-30.9-20-67.9-47-109.6-76.1-41.8-28.7-88.8-59.3-140.7-78.4-51.8-20.1-108.4-22.6-163-11.9C379.8,300,280,363.1,199,390.1c-40.4,14.2-75.9,20.1-102.5,20-26.7.1-44.2-5.1-50.4-6.5-24.6-6.5-49.7-21.2-67.3-36.5C-38.9,351.8-49.4,337.5-49.5,337.8Z" fill="#c6c6c6"/>
      <path id="Path_597" data-name="Path 597" d="M-47.6,349.1c.1-.3,10.7,14,28.6,29,17.8,15.1,43.2,29.4,68.1,35.2a186.43,186.43,0,0,0,50.7,5.1c26.8-.6,62.3-7.4,102.7-22.3,80.9-28.7,180.4-93.3,290.1-114.3,54.5-10.5,111.1-7.2,162.6,13.6,51.7,19.8,98.4,51.4,139.9,80.8,41.5,29.9,78.3,57.5,109.1,78,30.7,20.7,55.4,34.2,70.5,41.6a603.858,603.858,0,0,0,117.9,43.3c46,11.6,96.4,17.6,142.8,16.5,93.1-.9,167.9-31.7,167.7-31.3.2-.3-74.7,30-167.7,30.5-46.4.9-96.7-5.3-142.7-17.1A601.157,601.157,0,0,1,975,494.3c-15.1-7.4-39.7-20.8-70.4-41.5-30.8-20.5-67.6-48.1-109.1-78-41.6-29.5-88.3-61.1-140.1-80.9-51.6-20.9-108.4-24.1-163-13.7-109.8,21-209.5,85.7-290.2,114.3-40.3,14.9-75.7,21.7-102.4,22.3a184.5,184.5,0,0,1-50.5-5.1c-24.7-5.8-50.1-19.5-68-34.3C-36.7,362.7-47.5,348.8-47.6,349.1Z" fill="#c6c6c6"/>
      <path id="Path_598" data-name="Path 598" d="M-45.8,360.4c.1-.3,11,13.6,29.1,28,18,14.5,43.8,27.9,68.7,32.9a188.832,188.832,0,0,0,50.8,3.7c26.8-1.2,62.2-8.9,102.5-24.6,80.7-30.3,180-96.5,289.8-117,54.6-10.2,111.2-6.3,162.7,15.4,51.6,20.7,98,53.1,139.4,83.4,41.3,30.6,77.9,59,108.6,79.9,30.6,21.2,55.2,34.9,70.3,42.5A597.784,597.784,0,0,0,1094,548.9c46.1,12,96.5,18.3,142.9,17.6,93.2-.2,168.2-30.6,168-30.3.2-.3-74.9,29.6-168,29.4-46.4.5-96.8-6-142.8-18.1A603.583,603.583,0,0,1,976.4,503c-15.1-7.6-39.6-21.3-70.2-42.4-30.7-20.9-67.3-49.2-108.6-79.9-41.3-30.3-87.9-62.8-139.6-83.5-51.5-21.8-108.4-25.6-163.1-15.4-110.1,20.5-209.5,86.8-290,117-40.2,15.7-75.6,23.3-102.3,24.6-26.7,1.6-44.5-2.6-50.6-3.6-24.8-5-50.5-17.9-68.6-32.1C-34.6,373.7-45.6,360.1-45.8,360.4Z" fill="#c6c6c6"/>
      <path id="Path_599" data-name="Path 599" d="M-43.9,371.6c.1-.3,11.2,13.3,29.6,27.1C4,412.6,30,425.1,55,429.4a191.656,191.656,0,0,0,50.9,2.3c26.8-1.9,62.2-10.3,102.4-26.9C288.8,372.9,387.9,305,498,285.1c54.7-9.9,111.4-5.5,162.7,17.1,51.5,21.5,97.7,54.9,138.8,85.9,41,31.4,77.5,60.4,108.1,81.8,30.5,21.6,55.1,35.7,70.2,43.4a592.915,592.915,0,0,0,117.8,45.4c46.1,12.4,96.6,19,143.1,18.6,93.4.4,168.5-29.4,168.3-29.1.2-.3-75.1,29.2-168.3,28.3-46.5.2-96.9-6.6-142.9-19.2a600.265,600.265,0,0,1-117.6-45.5c-15-7.7-39.6-21.7-70-43.4-30.6-21.3-67-50.3-108.1-81.8-41.1-31.1-87.4-64.5-139-86-51.4-22.6-108.4-27.1-163.2-17.1-110.4,20-209.5,88-289.8,119.8-40.1,16.5-75.5,24.9-102.2,26.8a190.244,190.244,0,0,1-50.7-2.3C30.3,423.5,4.4,411.5-14,398-32.5,384.6-43.8,371.3-43.9,371.6Z" fill="#c6c6c6"/>
      <path id="Path_600" data-name="Path 600" d="M-42,382.9c.1-.3,11.4,12.9,30.1,26.1C6.7,422.3,32.9,434,58,437.5a199.79,199.79,0,0,0,51,.9c26.8-2.6,62.2-11.8,102.3-29.1,80.2-33.4,179-103.1,289.4-122.5,54.8-10,111.6-4.3,162.9,18.6,51.4,22.2,97.4,56.7,138.2,88.5,40.8,32.1,77,61.9,107.6,83.7,30.4,22.1,54.9,36.5,70,44.3a583.8,583.8,0,0,0,117.8,46.4A548.68,548.68,0,0,0,1240.4,588c93.5,1.1,168.9-28.3,168.7-28.1.2-.3-75.3,28.8-168.7,27.3a552.152,552.152,0,0,1-143-20.2,596.584,596.584,0,0,1-117.6-46.6c-15-7.9-39.5-22.2-69.9-44.3-30.5-21.8-66.7-51.6-107.5-83.7-40.9-31.8-86.9-66.3-138.5-88.6-51.4-23-108.4-28.7-163.3-18.7C389.9,304.6,291,374.4,211,407.8c-40,17.3-75.3,26.4-102,29a198.29,198.29,0,0,1-50.8-.9c-25-3.5-51.1-14.7-69.8-27.6C-30.4,395.5-41.9,382.6-42,382.9Z" fill="#c6c6c6"/>
    </g>
    <g id="Group_463" data-name="Group 463" transform="translate(-36 13)">
      <path id="Path_601" data-name="Path 601" d="M37.8,904.6c-.2.6,11.4-84.5,44.2-143.1a286.306,286.306,0,0,1,36.2-53.4c21.1-24.8,53.3-51.2,93.9-68.5,81.6-36.7,191.9-33.9,302.3-26.9,55.4,4,111.8,3.3,165.2-10.8,53.4-13.1,103.5-35.2,147.8-58.4C916.1,496.4,983.1,448,1013.7,432c30.2-17.3,71.5-39,117.5-56.1,45.9-17.4,96.4-29.6,143.2-34.2,93.8-9.6,170.5,10.3,170.3,9.6.1.7-76.6-18.8-170.3-8.8-46.7,4.8-97.1,17.2-143,34.7-45.9,17.3-87.1,39-117.3,56.3-30.5,16-97.5,64.4-186.3,111.6-44.4,23.3-94.5,45.4-148,58.5-53.5,14.2-110.1,14.8-165.4,10.9-110.4-7-220.6-9.7-301.9,26.8C172,658.5,140,684.7,119,709.4a284.884,284.884,0,0,0-36,53.1C50.4,820.7,37.6,905.2,37.8,904.6Z" fill="#c6c6c6"/>
      <path id="Path_602" data-name="Path 602" d="M38.4,893c-.2.7,12.5-84.1,46.3-141.4a282,282,0,0,1,37.1-52c21.5-24,54-49.2,94.7-65.5,81.8-34.5,191.7-30.1,301.9-23.9,55.3,3.6,111.6,2,164.8-13.1,53.2-14.1,103-37.2,147-61.1,88-48.9,154.8-97.6,185.2-113.9,59.6-36.3,166.1-84.1,259.8-91.8,93.6-10.4,170.2,9.5,170.1,8.5.1,1-76.5-18.5-170-7.7-93.7,8.1-199.9,56.2-259.5,92.5-30.4,16.3-97.1,65-185.2,113.9-44.1,24-93.9,47.1-147.3,61.2-53.3,15.1-109.8,16.7-165,13.1-110.3-6.3-220-10.6-301.6,23.8-40.6,16.2-73,41.3-94.4,65.2a277.12,277.12,0,0,0-36.9,51.7C51.9,809.4,38.2,893.6,38.4,893Z" fill="#c6c6c6"/>
      <path id="Path_603" data-name="Path 603" d="M39,881.4c-.2.7,13.5-83.8,48.3-139.7a267.435,267.435,0,0,1,37.9-50.5c21.9-23.2,54.6-47.2,95.5-62.4,82-32.4,191.5-26.5,301.6-20.9,55.2,3.2,111.4.7,164.4-15.3,53-15,102.4-39.1,146.2-63.9,87.4-50.5,153.8-99.8,184.1-116.3,59.4-36.7,165.5-84.9,259.1-93.3,93.4-11,169.9,8.4,169.8,7.4.1,1-76.5-18-169.7-6.6-93.5,8.8-199.4,57.3-258.7,94-30.3,16.5-96.7,65.7-184.1,116.3-43.8,24.7-93.3,48.9-146.4,63.9-53,16.1-109.5,18.5-164.6,15.4C412.1,603.9,302.7,598,221,630.4c-40.7,15.2-73.4,39-95.1,62.2a264.576,264.576,0,0,0-37.7,50.2C53.5,798.2,38.8,882,39,881.4Z" fill="#c6c6c6"/>
      <path id="Path_604" data-name="Path 604" d="M39.5,869.8c-.2.7,14.6-83.4,50.4-137.9a261.393,261.393,0,0,1,38.7-49c22.2-22.4,55.3-45.2,96.2-59.4,82.2-30.3,191.3-22.9,301.3-18,55.1,2.8,111.3-.6,164-17.5,52.8-16,101.9-41.1,145.4-66.6,86.8-52.2,152.9-101.9,183.1-118.7,59.2-37.1,165-85.8,258.4-94.8,93.2-11.6,169.6,7.4,169.5,6.4.1,1-76.4-17.6-169.5-5.6-93.3,9.4-198.9,58.5-258,95.5-30.2,16.7-96.2,66.4-183.1,118.6-43.5,25.6-92.7,50.7-145.6,66.7-52.8,17-109.2,20.3-164.3,17.6-110-4.9-219-12.3-301,18-40.8,14.1-73.7,36.9-95.9,59.2a254.921,254.921,0,0,0-38.5,48.8C55.2,787,39.3,870.4,39.5,869.8Z" fill="#c6c6c6"/>
      <path id="Path_605" data-name="Path 605" d="M40.1,858.2c-.3.7,15.6-82.9,52.4-136A254.461,254.461,0,0,1,132,674.7c22.6-21.6,55.9-43.3,96.9-56.4C311.2,590,420,598.9,529.8,603.1c55,2.4,111.1-1.8,163.6-19.7C746,566.5,794.8,540.3,838,514c86.2-53.8,151.9-104.1,182-121,58.9-37.5,164.5-86.8,257.7-96.4,93-12.2,169.4,6.3,169.3,5.4.1.9-76.3-17.2-169.3-4.6-93.2,10-198.5,59.6-257.3,97.1-30.1,16.9-95.8,67.2-182,121C795.2,541.8,746.3,568,693.6,585c-52.6,17.9-108.9,22.2-163.9,19.8C419.8,600.6,311.1,591.7,229,620c-40.9,13.1-74.1,34.7-96.5,56.2a252.4,252.4,0,0,0-39.3,47.3C56.8,775.9,39.8,858.8,40.1,858.2Z" fill="#c6c6c6"/>
      <path id="Path_606" data-name="Path 606" d="M40.7,846.6c.2.1,4-20.1,12.9-47.4,8.7-27.2,23.5-60.9,41.6-86.7a248.811,248.811,0,0,1,40.3-46c22.9-20.8,56.4-41.3,97.5-53.4,82.5-26.2,190.9-16,300.6-12.6,55,2.1,111-3,163.3-21.8,52.4-17.8,100.8-45,143.8-72.1,85.6-55.4,151-106.2,181-123.3,58.7-38,164-87.7,257.1-98,92.9-12.9,169.2,5.3,169.1,4.3.1.9-76.3-16.8-169.1-3.5-93,10.7-198,60.7-256.7,98.6-30,17.1-95.4,67.9-181,123.3-42.9,27.1-91.5,54.3-143.9,72.2-52.4,18.8-108.6,24-163.6,21.9-109.8-3.5-218.2-13.7-300.4,12.5-41,12.1-74.4,32.6-97.2,53.2a244.679,244.679,0,0,0-40,45.8C58.5,764.8,40.4,847.2,40.7,846.6Z" fill="#c6c6c6"/>
      <path id="Path_607" data-name="Path 607" d="M41.2,835c.2.1,4.3-20,13.5-46.9,9.1-26.9,24.5-60,43-85.1a248.721,248.721,0,0,1,41-44.5c23.2-19.9,57-39.4,98.1-50.5,82.6-24.3,190.7-12.6,300.3-9.9,54.9,1.8,110.8-4.3,162.9-24,52.2-18.8,100.3-46.9,142.9-74.8,84.9-57,150-108.3,179.9-125.7,58.5-38.4,163.5-88.6,256.5-99.5,92.7-13.5,169,4.2,168.9,3.3.1.9-76.2-16.4-168.9-2.5-92.8,11.3-197.6,61.8-256.1,100.2-29.9,17.3-94.9,68.7-179.9,125.7-42.6,27.9-90.9,56.1-143.1,74.9-52.2,19.7-108.3,25.8-163.2,24-109.7-2.8-217.8-14.3-300.1,9.9-41,11.1-74.7,30.5-97.8,50.3a246.559,246.559,0,0,0-40.8,44.3C60.1,753.7,40.9,835.6,41.2,835Z" fill="#c6c6c6"/>
      <path id="Path_608" data-name="Path 608" d="M41.8,823.4c.1.1,4.6-19.8,14.2-46.5,9.6-26.6,25.4-59.2,44.4-83.5a238.431,238.431,0,0,1,41.7-42.9c23.5-19.1,57.5-37.4,98.7-47.6,82.7-22.3,190.5-9.3,300.1-7.3,54.9,1.4,110.7-5.5,162.6-26.1,51.9-19.7,99.8-48.9,142.1-77.5,84.3-58.6,149.1-110.5,178.9-128.1,58.3-38.8,163.1-89.6,255.9-101.1,92.6-14.1,168.9,3.2,168.7,2.2.1.9-76.2-16-168.7-1.4-92.7,11.9-197.2,63-255.5,101.8-29.8,17.5-94.5,69.4-178.9,128C803.7,522,755.8,551.2,703.7,571c-51.9,20.6-108,27.6-162.9,26.2-109.6-2-217.4-15-299.9,7.2-41.1,10.2-75,28.4-98.3,47.4a243.286,243.286,0,0,0-41.5,42.7c-18.9,24.2-34.9,56.4-44.7,82.7C46.6,803.6,42,823.5,41.8,823.4Z" fill="#c6c6c6"/>
      <path id="Path_609" data-name="Path 609" d="M42.4,811.7a470.757,470.757,0,0,1,14.8-46c10-26.2,26.3-58.3,45.8-81.9a234.675,234.675,0,0,1,42.4-41.4c23.8-18.3,58-35.5,99.2-44.7,82.8-20.4,190.3-6,299.8-4.7,54.8,1,110.6-6.7,162.2-28.3,51.7-20.6,99.2-50.8,141.2-80.1C931.5,424.4,996,372,1025.7,354.2c58.1-39.3,162.6-90.6,255.3-102.7,92.5-14.8,168.7,2.1,168.6,1.2.1.9-76.2-15.5-168.5-.4-92.6,12.5-196.9,64.2-254.9,103.4-29.7,17.8-94.1,70.2-177.9,130.4-42,29.4-89.6,59.6-141.4,80.3-51.7,21.6-107.7,29.3-162.5,28.3-109.6-1.3-217.1-15.7-299.6,4.7-41.1,9.2-75.2,26.4-98.9,44.6a233.868,233.868,0,0,0-42.1,41.2c-19.3,23.5-35.8,55.1-46,81.1C47.5,792.2,42.5,811.9,42.4,811.7Z" fill="#c6c6c6"/>
      <path id="Path_610" data-name="Path 610" d="M42.9,800.1a457.164,457.164,0,0,1,15.5-45.5c10.4-25.9,27.3-57.3,47.1-80.2a229.357,229.357,0,0,1,43-39.9c24-17.4,58.4-33.6,99.7-41.9,82.8-18.5,190.1-2.7,299.6-2.1,54.8.6,110.5-8,161.9-30.4,51.5-21.6,98.6-52.7,140.4-82.8,83-61.7,147.2-114.7,176.9-132.8,57.9-39.8,162.2-91.6,254.7-104.4,92.3-15.4,168.6,1,168.4.2.1.9-76.1-15.1-168.4.6-92.5,13.2-196.5,65.4-254.4,105-29.6,18-93.7,71-176.8,132.8-41.7,30.2-88.9,61.3-140.6,82.9-51.5,22.5-107.4,31.1-162.2,30.4-109.5-.5-216.8-16.3-299.4,2.1-41.2,8.3-75.4,24.4-99.3,41.7-24.1,17.1-37.9,34.1-42.8,39.6-19.7,22.7-36.7,53.7-47.3,79.4C48.3,780.7,43.1,800.3,42.9,800.1Z" fill="#c6c6c6"/>
      <path id="Path_611" data-name="Path 611" d="M43.5,788.5c.2.1,5.4-19.4,16.2-45C70.5,718,87.9,687.2,108.1,665a227.793,227.793,0,0,1,43.6-38.4c24.3-16.6,58.8-31.8,100.1-39.1,82.9-16.3,190,.4,299.4.5,54.7.3,110.4-9.1,161.6-32.5,51.3-22.5,98.1-54.5,139.5-85.4,82.4-63.3,146.3-116.9,175.9-135.1,57.7-40.2,161.8-92.7,254.2-106.1,92.2-16,168.5-.1,168.3-.9.1.8-76.1-14.7-168.3,1.7-92.4,13.8-196.2,66.6-253.8,106.7-29.5,18.2-93.4,71.8-175.8,135.1-41.4,30.9-88.3,63-139.7,85.5-51.3,23.4-107.1,32.8-161.9,32.5-109.5,0-216.5-16.8-299.2-.5-41.2,7.4-75.6,22.4-99.8,39a225.543,225.543,0,0,0-43.4,38.2c-20.1,22-37.6,52.4-48.6,77.6C49.1,769.3,43.7,788.6,43.5,788.5Z" fill="#c6c6c6"/>
      <path id="Path_612" data-name="Path 612" d="M44.1,776.9a463.162,463.162,0,0,1,16.8-44.5c11.3-25.1,29.2-55.3,49.7-76.7a227.281,227.281,0,0,1,44.2-36.8c24.5-15.8,59.2-29.9,100.5-36.4,82.9-14.5,189.8,3.7,299.2,3,54.7-.1,110.3-10.3,161.3-34.5,51.1-23.4,97.5-56.4,138.7-88.1,81.8-64.9,145.4-119,174.9-137.5,57.5-40.7,161.4-93.7,253.7-107.8,92.1-16.7,168.4-1.1,168.2-2,.2.8-76.1-14.3-168.2,2.8-92.3,14.4-195.9,67.8-253.3,108.4-29.4,18.5-93,72.6-174.8,137.5C813.9,496,767.3,529,716.1,552.5,665,576.7,609.2,587,554.5,587.1c-109.5.7-216.3-17.4-299.1-3-41.3,6.5-75.8,20.5-100.2,36.2-24.5,15.5-38.9,31.5-44,36.6-20.4,21.3-38.4,51-49.9,75.8A468.14,468.14,0,0,0,44.1,776.9Z" fill="#c6c6c6"/>
      <path id="Path_613" data-name="Path 613" d="M44.7,765.3a441.656,441.656,0,0,1,17.5-43.9c11.7-24.7,30.1-54.2,51-74.9A222.884,222.884,0,0,1,158,611.2c24.7-15,59.5-28.1,100.9-33.7,83-12.6,189.6,6.9,299,5.4,54.7-.5,110.2-11.5,161-36.6,50.9-24.3,97-58.3,137.8-90.6,81.2-66.4,144.4-121.3,173.9-139.9,57.3-41.1,161-94.8,253.3-109.4,92.1-17.3,168.3-2.2,168.2-3,.2.8-76.2-13.9-168.1,3.8-92.2,15-195.6,69-252.9,110.1-29.4,18.6-92.6,73.5-173.8,139.9-40.8,32.4-87,66.4-138,90.8-50.8,25.1-106.6,36.2-161.3,36.7-109.5,1.4-216.1-18-298.9-5.4-41.3,5.6-76,18.6-100.6,33.5a223.75,223.75,0,0,0-44.6,35.1c-20.8,20.5-39.3,49.6-51.2,74A404.844,404.844,0,0,0,44.7,765.3Z" fill="#c6c6c6"/>
      <path id="Path_614" data-name="Path 614" d="M45.2,753.7a438.135,438.135,0,0,1,18.2-43.4c12-24.3,31-53.1,52.2-73a224.3,224.3,0,0,1,45.3-33.7c24.9-14.2,59.9-26.3,101.3-31,83-10.8,189.5,10.1,298.9,7.9,54.7-.9,110.2-12.7,160.7-38.7,50.7-25.2,96.4-60.1,136.9-93.2,80.5-67.9,143.5-123.4,172.9-142.3,57.2-41.6,160.7-95.9,252.8-111.2,92-18,168.3-3.3,168.1-4.1.2.8-76.2-13.5-168.1,4.9-92.1,15.7-195.4,70.3-252.4,111.8-29.3,18.9-92.3,74.3-172.8,142.2-40.5,33.2-86.4,68.1-137.1,93.3-50.6,26-106.3,37.9-161,38.7-109.5,2.2-216-18.7-298.8-7.9-41.3,4.7-76.1,16.7-101,30.9-24.9,14-39.8,28.8-45.1,33.5-21.1,19.8-40.1,48.1-52.4,72.2C51.7,734.9,45.4,753.8,45.2,753.7Z" fill="#c6c6c6"/>
      <path id="Path_615" data-name="Path 615" d="M45.8,742.1a428.183,428.183,0,0,1,18.9-42.8c12.4-23.9,31.9-52,53.5-71.1,5.4-4.6,20.6-18.9,45.8-32.2,25.1-13.4,60.2-24.5,101.6-28.3,83-9,189.3,13.3,298.7,10.3,54.7-1.2,110.1-13.9,160.4-40.7,50.4-26.1,95.9-61.9,136.1-95.8,79.9-69.4,142.6-125.5,171.9-144.7,57-42.1,160.3-97.1,252.4-113,91.9-18.7,168.2-4.4,168.1-5.2.2.8-76.2-13.1-168,6-92,16.3-195.1,71.5-252,113.6-29.2,19.1-91.9,75.2-171.8,144.6-40.2,33.9-85.7,69.8-136.3,95.9-50.4,26.9-106,39.5-160.8,40.8-109.5,2.9-215.8-19.3-298.7-10.3-41.3,3.8-76.3,14.9-101.3,28.2a220.29,220.29,0,0,0-45.6,32c-21.4,19.1-41,46.6-53.6,70.3A398.564,398.564,0,0,0,45.8,742.1Z" fill="#c6c6c6"/>
      <path id="Path_616" data-name="Path 616" d="M46.4,730.5c.2.2,6.7-18.5,19.6-42.1,12.8-23.5,32.8-50.8,54.6-69.2a217.63,217.63,0,0,1,46.3-30.6c25.3-12.6,60.5-22.8,101.9-25.7,83-7.2,189.2,16.4,298.6,12.7,54.7-1.6,110.1-15,160.1-42.7,50.2-27,95.3-63.7,135.2-98.3,79.2-70.9,141.7-127.7,170.9-147.1a753.548,753.548,0,0,1,112.7-67.4c44.4-21.4,93.5-38.4,139.3-47.4a512.085,512.085,0,0,1,168.1-6.2,512.986,512.986,0,0,0-168,7c-45.8,9.2-94.8,26.4-139.1,47.9-44.4,21.4-83.9,46.9-112.5,67.6-29.2,19.3-91.6,76-170.8,147-39.9,34.6-85.1,71.5-135.4,98.5-50.2,27.8-105.8,41.2-160.5,42.8-109.6,3.7-215.7-20-298.6-12.8-41.3,2.9-76.4,13-101.6,25.6a218.136,218.136,0,0,0-46.1,30.5C99.4,638.9,79.3,665.7,66.3,689A359.306,359.306,0,0,0,46.4,730.5Z" fill="#c6c6c6"/>
      <path id="Path_617" data-name="Path 617" d="M46.9,718.8c.2.2,7-18.3,20.2-41.5,13.2-23.1,33.7-49.6,55.8-67.3a219.909,219.909,0,0,1,46.8-29.1c25.5-11.8,60.7-21,102.2-23.1,83-5.5,189.1,19.6,298.5,15.2,54.7-2,110-16.1,159.9-44.7,50-27.8,94.8-65.5,134.4-100.8C943.3,355,1005.5,297.6,1034.6,278c28.6-21,68.1-46.7,112.5-68.3,44.3-21.7,93.4-39,139.2-48.4a512.429,512.429,0,0,1,168.1-7.3,513.266,513.266,0,0,0-168,8.1c-45.7,9.5-94.7,27-139,48.8-44.3,21.7-83.8,47.5-112.3,68.4-29.1,19.6-91.2,76.9-169.9,149.4-39.6,35.3-84.4,73.1-134.6,101-50,28.6-105.5,42.8-160.2,44.8-109.6,4.4-215.7-20.7-298.5-15.2-41.4,2.1-76.5,11.2-101.9,23a216.224,216.224,0,0,0-46.6,29c-22,17.6-42.5,43.6-55.9,66.4C54.2,700.7,47.1,719,46.9,718.8Z" fill="#c6c6c6"/>
      <path id="Path_618" data-name="Path 618" d="M47.5,707.2c.2.2,7.3-18.1,20.9-40.8C82,643.8,103,618,125.3,601.1a215.054,215.054,0,0,1,47.2-27.6c25.6-11.1,61-19.4,102.4-20.6,83-3.7,188.9,22.8,298.5,17.7,54.7-2.4,110-17.1,159.6-46.6,49.8-28.7,94.2-67.3,133.5-103.3,78-74,139.9-132.1,169-151.9,28.5-21.2,67.9-47.2,112.3-69.2,44.3-22,93.3-39.7,139.1-49.3a509.469,509.469,0,0,1,168.1-8.4,510.376,510.376,0,0,0-168,9.2c-45.7,9.8-94.7,27.7-138.9,49.8-44.2,22-83.6,48.1-112.1,69.3C1007,290,945.1,348,867.1,422.1c-39.3,36.1-83.8,74.7-133.7,103.5-49.7,29.7-105.3,44.4-160,46.8-109.7,5.1-215.6-21.4-298.5-17.7-41.4,1.2-76.6,9.5-102.1,20.5-25.6,10.9-41.4,23.5-47,27.5-22.2,16.9-43.3,42.1-57,64.5C55,689.3,47.7,707.4,47.5,707.2Z" fill="#c6c6c6"/>
      <path id="Path_619" data-name="Path 619" d="M48.1,695.6c.2.2,7.6-17.9,21.6-40.1s35.4-47.1,58-63.3a218.881,218.881,0,0,1,47.6-26.1c25.8-10.3,61.2-17.6,102.7-18.1,83-2.2,188.8,26.1,298.4,20,54.7-2.8,110-18.2,159.4-48.6,49.6-29.5,93.6-69,132.7-105.8,77.3-75.5,139-134.3,168-154.4,28.4-21.5,67.8-47.9,112-70.1,44.2-22.4,93.2-40.3,139-50.3a507.268,507.268,0,0,1,168.2-9.5,508.108,508.108,0,0,0-168.1,10.3c-45.7,10.2-94.6,28.3-138.7,50.8-44.2,22.3-83.5,48.8-111.8,70.2-29,20.1-90.5,78.8-167.9,154.3-39,36.8-83.1,76.3-132.9,105.9-49.5,30.5-105,45.9-159.8,48.8-109.8,6.1-215.6-22.3-298.5-20-41.4.4-76.7,7.7-102.4,18a209.876,209.876,0,0,0-47.4,26c-22.5,16.1-44,40.5-58.1,62.4A349.282,349.282,0,0,0,48.1,695.6Z" fill="#c6c6c6"/>
      <path id="Path_620" data-name="Path 620" d="M48.6,684c.2.2,7.8-17.7,22.3-39.4,14.3-21.7,36.2-45.9,59.1-61.3a213.452,213.452,0,0,1,48-24.6c25.9-9.6,61.4-16,102.9-15.6,83-.5,188.7,29.3,298.4,22.5,54.7-3.2,110-19.2,159.2-50.5,49.4-30.4,93.1-70.8,131.8-108.3C908.9,369,943,334,971.6,307c28.5-27.2,51.5-46.2,65.7-57a741.851,741.851,0,0,1,111.8-71c44.2-22.7,93.1-41,138.9-51.3a507.663,507.663,0,0,1,168.2-10.6c.2.3-76.5-10.8-168.1,11.4-45.7,10.5-94.6,29-138.7,51.8a754.73,754.73,0,0,0-111.6,71.1c-14.2,10.8-37.1,29.8-65.6,57-28.6,26.9-62.7,61.9-101.3,99.8-38.7,37.5-82.5,77.9-132,108.4-49.3,31.4-104.8,47.5-159.6,50.7-109.9,6.8-215.6-23.1-298.5-22.5-41.4-.4-76.8,6-102.6,15.5a213.97,213.97,0,0,0-47.8,24.5c-22.8,15.4-44.7,39-59.1,60.4C56.7,666.5,48.8,684.2,48.6,684Z" fill="#c6c6c6"/>
      <path id="Path_621" data-name="Path 621" d="M49.2,672.4c.2.2,8.1-17.4,22.9-38.7,14.7-21.3,37-44.6,60.1-59.3a214.145,214.145,0,0,1,48.4-23.2c26-8.9,61.6-14.4,103.1-13.2,83,1.2,188.6,32.5,298.4,25.1,54.7-3.5,110-20.3,159-52.4,49.2-31.2,92.5-72.5,131-110.7,38.3-38.6,72.2-74.2,100.6-101.5,28.3-27.6,51.3-46.8,65.4-57.8,28.2-22,67.5-49.1,111.6-71.9,44.1-23,93.1-41.7,138.8-52.3,91.7-22.5,168.5-11.4,168.3-11.7.2.3-76.6-10.4-168.2,12.5-45.7,10.9-94.6,29.7-138.6,52.8a741.461,741.461,0,0,0-111.4,72.1c-14.1,11-37,30.2-65.3,57.8-28.4,27.3-62.2,62.9-100.6,101.5-38.4,38.2-81.9,79.6-131.2,110.8-49.1,32.2-104.6,49-159.4,52.6-110,7.4-215.7-23.9-298.5-25.1-41.4-1.2-76.9,4.3-102.8,13.1-26,8.6-42.4,19.6-48.2,23-23,14.6-45.3,37.5-60.2,58.4C57.6,655.2,49.4,672.6,49.2,672.4Z" fill="#c6c6c6"/>
      <path id="Path_622" data-name="Path 622" d="M49.8,660.8a311.431,311.431,0,0,1,23.5-37.9c15.1-20.8,37.7-43.3,61.1-57.3a212.721,212.721,0,0,1,48.7-21.7c26.2-8.2,61.8-12.8,103.3-10.8,82.9,2.8,188.5,35.8,298.5,27.7,54.8-3.9,110.1-21.3,158.8-54.3,49-32,92-74.2,130.1-113.1,38-39.3,71.6-75.4,99.9-103.2,28.2-28,51.1-47.5,65.2-58.6,28.2-22.3,67.3-49.7,111.5-72.9,44.1-23.4,93-42.3,138.7-53.3,91.7-23.2,168.6-12.5,168.4-12.8.2.3-76.7-10-168.3,13.6-45.7,11.2-94.6,30.3-138.5,53.8a744.512,744.512,0,0,0-111.2,73c-14.1,11.1-36.9,30.6-65.1,58.5-28.3,27.7-61.8,63.9-99.9,103.2-38.1,39-81.2,81.1-130.3,113.3A323.5,323.5,0,0,1,585,562.4c-110.2,8.1-215.7-24.9-298.6-27.7-41.4-2-76.9,2.6-103,10.8a210.985,210.985,0,0,0-48.5,21.6c-23.2,13.9-45.9,36-61.1,56.4A301.29,301.29,0,0,0,49.8,660.8Z" fill="#c6c6c6"/>
      <path id="Path_623" data-name="Path 623" d="M50.4,649.2a303.969,303.969,0,0,1,24.2-37.1c15.4-20.3,38.5-42,62.1-55.3a214.7,214.7,0,0,1,49-20.3c26.3-7.5,62-11.3,103.4-8.4,82.9,4.4,188.4,39.2,298.5,30.4,54.8-4.3,110.1-22.3,158.6-56.2,48.8-32.9,91.5-75.8,129.3-115.5,37.7-40,71-76.8,99.2-104.9,28-28.4,50.8-48.1,64.9-59.4a739.114,739.114,0,0,1,111.3-73.9c44-23.7,93-43,138.7-54.4,91.7-23.9,168.8-13.7,168.5-14,.2.3-76.8-9.5-168.5,14.7-45.7,11.5-94.6,31-138.5,54.8-44,23.6-83,51.4-111.1,74-14,11.3-36.8,31-64.8,59.3-28.1,28.1-61.4,64.9-99.2,104.9-37.8,39.7-80.6,82.7-129.5,115.7-48.6,33.9-104.1,52-159,56.3-110.3,8.8-215.8-26-298.6-30.4-41.4-2.9-77,1-103.2,8.4a210.9,210.9,0,0,0-48.8,20.2c-23.4,13.2-46.5,34.5-62.1,54.4A305.85,305.85,0,0,0,50.4,649.2Z" fill="#c6c6c6"/>
      <path id="Path_624" data-name="Path 624" d="M50.9,637.5a284.563,284.563,0,0,1,24.8-36.4c15.7-19.8,39.2-40.7,63-53.3A214.864,214.864,0,0,1,188,528.9c26.4-6.8,62.1-9.8,103.6-6.1,82.9,6.1,188.3,42.4,298.6,33a317.271,317.271,0,0,0,158.5-58c48.6-33.7,90.9-77.5,128.4-117.8,37.4-40.8,70.5-78.1,98.5-106.7,27.9-28.8,50.6-48.8,64.6-60.3,28-22.9,67-51,111.1-74.9,44-24.1,92.9-43.7,138.7-55.4,91.8-24.6,168.9-14.8,168.7-15.1.2.3-76.9-9.1-168.6,15.9-45.7,11.9-94.6,31.7-138.5,55.9-44,24-82.9,52.1-110.9,75-14,11.4-36.7,31.4-64.5,60.2-28,28.6-61,65.9-98.4,106.6-37.5,40.4-79.9,84.3-128.6,118a318.1,318.1,0,0,1-158.9,58.1c-110.5,9.4-216-27-298.7-33-41.4-3.7-77-.7-103.3,6.1a213.351,213.351,0,0,0-49.1,18.8c-23.7,12.5-47.1,33-63,52.4C60.1,621.1,51.1,637.8,50.9,637.5Z" fill="#c6c6c6"/>
      <path id="Path_625" data-name="Path 625" d="M51.5,625.9a282.786,282.786,0,0,1,25.4-35.6c16.1-19.3,39.9-39.4,63.9-51.2,6-2.7,23.1-11.8,49.6-17.5,26.5-6.1,62.3-8.3,103.7-3.8,82.8,7.7,188.2,45.7,298.6,35.7A313.17,313.17,0,0,0,751,493.8c48.4-34.5,90.4-79.1,127.6-120.2,37.1-41.5,69.9-79.4,97.7-108.4,27.7-29.2,50.4-49.5,64.4-61.1a725.322,725.322,0,0,1,110.9-75.9c44-24.4,92.9-44.4,138.7-56.5,91.8-25.3,169.1-16,168.8-16.3.2.3-77.1-8.6-168.8,17-45.7,12.2-94.6,32.4-138.4,56.9-43.9,24.3-82.8,52.8-110.7,76-13.9,11.6-36.6,31.8-64.3,61-27.8,29-60.6,66.9-97.7,108.4-37.2,41.1-79.3,85.8-127.8,120.4A315.71,315.71,0,0,1,592.6,555c-110.7,10-216.1-28.1-298.8-35.8-41.4-4.5-77.1-2.3-103.5,3.8a207.61,207.61,0,0,0-49.4,17.5C117,552.2,93.3,571.9,77,590.8,60.9,609.8,51.6,626.2,51.5,625.9Z" fill="#c6c6c6"/>
      <path id="Path_626" data-name="Path 626" d="M52.1,614.3c.1.3,9.5-16.1,26-34.7,16.4-18.7,40.6-38.1,64.7-49.2a209.911,209.911,0,0,1,49.9-16.2c26.6-5.5,62.4-6.9,103.9-1.6,82.8,9.3,188.1,49.1,298.7,38.5a310.268,310.268,0,0,0,158.2-61.4c48.2-35.3,89.9-80.8,126.8-122.6,36.8-42.2,69.3-80.7,97-110.1,27.6-29.7,50.1-50.2,64.1-62a710.958,710.958,0,0,1,110.8-76.9c43.9-24.8,92.9-45.2,138.7-57.5,91.8-26,169.3-17.2,169-17.4.2.2-77.2-8.2-168.9,18.2-45.8,12.6-94.6,33.1-138.4,58a734.133,734.133,0,0,0-110.6,77c-13.9,11.7-36.5,32.2-64,61.9-27.7,29.4-60.2,67.9-97,110.1-36.9,41.8-78.6,87.4-127,122.7a310.991,310.991,0,0,1-158.6,61.6c-110.9,10.6-216.3-29.2-298.9-38.5-41.4-5.3-77.1-3.8-103.6,1.6-26.6,5.1-43.7,13.6-49.7,16.1-24,11-48.2,30-64.7,48.3C61.8,598.5,52.2,614.6,52.1,614.3Z" fill="#c6c6c6"/>
      <path id="Path_627" data-name="Path 627" d="M52.6,602.7c.1.3,9.8-15.8,26.6-33.9,16.7-18.2,41.2-36.8,65.5-47.2,6.1-2.4,23.4-10.4,50.1-14.9,26.7-4.8,62.5-5.4,104,.6,82.7,11,188,52.5,298.9,41.3,55.1-5.2,110.3-26.3,158.1-62.9,48.1-36,89.3-82.5,125.9-125,36.5-42.8,68.7-82.1,96.3-111.9,27.4-30.1,49.9-50.9,63.8-62.8a714.071,714.071,0,0,1,110.6-78c43.9-25.2,92.8-45.9,138.7-58.6C1383,22.7,1460.6,31,1460.3,30.8c.2.2-77.4-7.7-169.1,19.4-45.8,12.9-94.6,33.8-138.4,59.1-43.9,25-82.7,54.3-110.4,78.1-13.9,11.9-36.3,32.7-63.7,62.7-27.5,29.8-59.7,69-96.2,111.9-36.6,42.5-77.9,89.1-126.1,125.2C708.5,524,653,545.1,597.8,550.3c-111.1,11.2-216.4-30.4-299-41.3-41.4-6-77.2-5.4-103.7-.6a210.412,210.412,0,0,0-49.9,14.8c-24.2,10.3-48.6,28.5-65.5,46.3C62.6,587.2,52.8,603,52.6,602.7Z" fill="#c6c6c6"/>
    </g>
  </g>
</svg>
