<svg xmlns="http://www.w3.org/2000/svg" xmlns:xlink="http://www.w3.org/1999/xlink" viewBox="0 0 148.01 88.94"><defs><style>.cls-1{fill:#fff;}.cls-2{mask:url(#mask);}.cls-3{fill:#c6900c;}.cls-4{mask:url(#mask-2);}</style><mask id="mask" x="27.71" y="83.46" width="93.71" height="5.47" maskUnits="userSpaceOnUse"><g id="mask-11"><polygon id="path-10" class="cls-1" points="27.7 83.46 121.41 83.46 121.41 88.94 27.7 88.94 27.7 83.46"/></g></mask><mask id="mask-2" x="58.13" y="0" width="27.34" height="10.63" maskUnits="userSpaceOnUse"><g id="mask-13"><polygon id="path-12" class="cls-1" points="58.13 0 85.47 0 85.47 10.63 58.13 10.63 58.13 0"/></g></mask></defs><title>logo_foot</title><g id="Layer_2" data-name="Layer 2"><g id="Layer_1-2" data-name="Layer 1"><g id="Group-31"><g id="Group-3"><g class="cls-2"><path id="Fill-1" d="M116.9,88.06a3.81,3.81,0,0,0,2.46.84c1.2,0,2.06-.59,2.06-1.49v0c0-.81-.62-1.24-2-1.49s-1.63-.53-1.63-1h0c0-.47.5-.85,1.28-.85a2.87,2.87,0,0,1,1.74.57l.4-.46a3.42,3.42,0,0,0-2.12-.65c-1.14,0-2,.61-2,1.44v0c0,.87.64,1.26,2,1.52s1.57.51,1.57,1h0c0,.52-.53.9-1.34.9a3.09,3.09,0,0,1-2.07-.75l-.42.44ZM111,83.55v.55h2v4.73h.69V84.1h2v-.55Zm-6.16,5.28h.68V86.78h1.72L109,88.83h.83L108,86.67c.95-.15,1.63-.66,1.63-1.54v0a1.37,1.37,0,0,0-.46-1,2.58,2.58,0,0,0-1.71-.53h-2.59Zm.68-2.59V84.1h1.86c1,0,1.54.39,1.54,1v0c0,.68-.64,1.09-1.55,1.09Zm-8.69,0a3.09,3.09,0,0,0,6.14,0h0a3.09,3.09,0,0,0-6.14,0Zm5.44,0a2.22,2.22,0,0,1-2.36,2.16,2.24,2.24,0,0,1-2.37-2.18h0A2.22,2.22,0,0,1,99.89,84a2.25,2.25,0,0,1,2.37,2.18Zm-11.5,1.85a3.81,3.81,0,0,0,2.46.84c1.2,0,2.06-.59,2.06-1.49v0c0-.81-.62-1.24-2-1.49s-1.63-.53-1.63-1h0c0-.47.5-.85,1.28-.85a2.87,2.87,0,0,1,1.74.57l.4-.46A3.42,3.42,0,0,0,93,83.48c-1.14,0-2,.61-2,1.44v0c0,.87.64,1.26,2,1.52s1.57.51,1.57,1h0c0,.52-.53.9-1.34.9a3.09,3.09,0,0,1-2.07-.75l-.42.44ZM85,83.55v5.28h4.4v-.54H85.64V86.44h3.29V85.9H85.64V84.1h3.67v-.54Zm-6.65,5.28H79V86.78h1.72l1.75,2.05h.84l-1.85-2.16c.95-.15,1.63-.66,1.63-1.54v0a1.36,1.36,0,0,0-.46-1,2.58,2.58,0,0,0-1.71-.53H78.32ZM79,86.24V84.1h1.86c1,0,1.54.39,1.54,1v0c0,.68-.65,1.09-1.55,1.09Zm-5.76,2.69.52-.35-1-.94a7.27,7.27,0,0,0,.87-1.33L73,86.09a6.66,6.66,0,0,1-.72,1.18L70.91,86c.88-.27,1.42-.7,1.42-1.37h0a1.33,1.33,0,0,0-1.46-1.19c-1,0-1.59.56-1.59,1.25h0a1.62,1.62,0,0,0,.6,1.16c-.92.32-1.45.82-1.45,1.52h0c0,.88.81,1.48,1.89,1.48a2.77,2.77,0,0,0,2-.82Zm-1.36-1.22a2.17,2.17,0,0,1-1.51.69c-.74,0-1.26-.43-1.26-1h0c0-.45.35-.87,1.15-1.13l1.61,1.45Zm-.18-3c0,.45-.4.78-1.16,1-.46-.43-.6-.66-.6-1h0a.82.82,0,0,1,.91-.76.77.77,0,0,1,.85.73v0ZM59.55,88.06a3.81,3.81,0,0,0,2.46.84c1.2,0,2.06-.59,2.06-1.49v0c0-.81-.62-1.24-2-1.49s-1.63-.53-1.63-1h0c0-.47.5-.85,1.28-.85a2.87,2.87,0,0,1,1.74.57l.4-.46a3.42,3.42,0,0,0-2.12-.65c-1.14,0-2,.61-2,1.44v0c0,.87.64,1.26,2,1.52s1.57.51,1.57,1h0c0,.52-.53.9-1.34.9A3.09,3.09,0,0,1,60,87.62l-.42.44Zm-5.36-4.51v5.28h4.07v-.55H54.87V83.55Zm-6.19,0v5.28h4.4v-.54H48.68V86.44H52V85.9H48.68V84.1h3.67v-.54Zm-6.43,0v.55h2v4.73h.69V84.1h2v-.55ZM34.4,86.21a2.84,2.84,0,0,0,3.06,2.71,2.87,2.87,0,0,0,3.08-2.73h0a2.85,2.85,0,0,0-3.06-2.71,2.87,2.87,0,0,0-3.08,2.73Zm5.44,0a2.22,2.22,0,0,1-2.36,2.16,2.24,2.24,0,0,1-2.37-2.18h0A2.22,2.22,0,0,1,37.47,84a2.25,2.25,0,0,1,2.37,2.18Zm-7.3-2.65v5.28h-.68V86.46H28.39v2.37h-.68V83.55h.68V85.9h3.47V83.55Z"/></g></g><path id="Fill-4" class="cls-3" d="M68,36l-.05,0L68,36"/><g id="Group-8"><g class="cls-4"><path id="Fill-6" class="cls-3" d="M70.69,1.67c5.87-.85,10.56,2.7,12.36,4,.71-.23,1.54-.51,2.42-.83-2.57-2-8-6.29-15.64-4.36-7.91,2-11.7,10.14-11.7,10.14,4.6-8.69,12.56-9,12.56-9"/></g></g><path id="Fill-9" class="cls-3" d="M89.66,14.11A17.62,17.62,0,0,1,87,32.24a15,15,0,0,1-16.82,4.53c7.4,3.48,17,.71,21.18-8.16A19.35,19.35,0,0,0,91.73,13a12.92,12.92,0,0,1-2.07,1.1"/><path id="Fill-11" class="cls-3" d="M80.9,8.47c-3.41,1-6.1,2.11-6.1,2.11C67.13,14.11,67.66,21,67.66,21a9.09,9.09,0,0,0,2.12.34c4.75.16,5.43-1.64,7.24-3A3.2,3.2,0,0,1,80.21,18h0a5.18,5.18,0,0,1,1,.54s-2.83,7.33-8.82,9.61C62.7,31.81,52.13,24.36,59,15.7a12.75,12.75,0,0,1,6.35-4.28,17.78,17.78,0,0,0-10.9,6.21c-7.18,9.71,8.87,17.4,21.06,9.91a21.24,21.24,0,0,0,8.12-9.09c-3.84-3-5.44-1.14-8.52.17a7.77,7.77,0,0,1-6.19-.39c.59-5.18,5.48-5.39,11.57-5.63s9-2.8,9-2.8c3.81-3,3.7-8.86,3.7-8.86-1.08,4.44-8.89,6.5-12.3,7.52"/><path id="Fill-13" d="M50.1,70.42a6.3,6.3,0,0,1-.91-.11c-.62-.1-.72-.43-.81-1.15-.11-1-.11-2.86-.11-5.23V59.64c0-3.77,0-4.44.05-5.21s.2-1.09.73-1.2a2.54,2.54,0,0,1,.57-.05.36.36,0,0,0,.33-.35c0-.35-.38-.35-.52-.35-.46,0-1.21,0-1.76,0l-.61,0h-.34c-.54,0-1.55,0-2.35,0-.14,0-.52,0-.52.35a.38.38,0,0,0,.33.35,6.75,6.75,0,0,1,.8.06c.67.1.8.38.86,1.2s.05,1.44.05,5.21v4.28a51.36,51.36,0,0,1-.13,5.22v.07c-.1.7-.17,1-.51,1.1a3.16,3.16,0,0,1-.7.11.34.34,0,0,0-.33.35c0,.16.09.35.52.35s1.3,0,1.83-.06l.54,0,.43,0c.58,0,1.54.07,2.37.07.47,0,.52-.24.52-.35a.33.33,0,0,0-.33-.35"/><path id="Fill-15" d="M63.74,71.12h1.33c.19,0,.72,0,.72-.35,0-.2-.21-.35-.48-.35a5.69,5.69,0,0,1-1.54-.33c-1.1-.43-1.46-.73-3.14-2.18l-.55-.47C59,66.5,54,61.65,53,60.67c.86-.86,4.93-4.63,5.55-5.17l.41-.38a7.33,7.33,0,0,1,2.26-1.65,4.25,4.25,0,0,1,1.39-.33c.38,0,.42-.24.42-.35s-.09-.32-.54-.32l-2,0H60l-1,0-.91,0c-.33,0-.45.16-.45.32a.43.43,0,0,0,.37.38c.07,0,.19,0,.19.34s-.63.92-1.24,1.51l-.14.13c-.41.41-1.49,1.44-2.62,2.53C52.63,59.16,50.43,61,50.43,61s7,7.62,8.24,8.52l.15.11a5.46,5.46,0,0,0,3.1,1.41,17.52,17.52,0,0,0,1.82.06"/><path id="Fill-17" d="M147.46,52.48c-.85,0-2,0-2.56,0h-.79c-.56,0-1.51,0-2,0s-.58.12-.58.35a.39.39,0,0,0,.38.35,2.8,2.8,0,0,1,.6.05c.55.12.69.34.75,1.21s.06,1.44.06,5.21v1.27H133v-.51c0-3.79,0-5.21,0-6s.2-1.09.77-1.2a2.72,2.72,0,0,1,.6-.05.38.38,0,0,0,.35-.35c0-.35-.4-.35-.55-.35-.56,0-1.57,0-2.11,0h-.76c-.59,0-1.68,0-2.53,0-.15,0-.55,0-.55.35a.38.38,0,0,0,.35.35,8.05,8.05,0,0,1,.84.06c.71.1.85.38.91,1.2s.06,1.44.06,5.21v4.28a48.77,48.77,0,0,1-.14,5.22v.08c-.11.69-.18,1-.54,1.09a3.62,3.62,0,0,1-.74.11.34.34,0,0,0-.35.35c0,.16.09.35.55.35s1.5,0,2.07-.07l.46,0H132c.53,0,1.76.08,2.86.08.5,0,.55-.24.55-.35a.34.34,0,0,0-.35-.35,10.63,10.63,0,0,1-1.13-.11c-.64-.1-.71-.44-.79-1.15-.11-1-.11-2.84-.11-5.17V62.28h10.25v1.65c0,1.86,0,4.13-.14,5.23-.09.7-.13,1.06-.8,1.16a10,10,0,0,1-1.1.11.35.35,0,0,0-.38.35c0,.08,0,.35.58.35,1,0,2.23,0,2.8-.07h.34l.4,0c.55,0,1.56.07,2.1.07.15,0,.55,0,.55-.35a.34.34,0,0,0-.35-.35,3.18,3.18,0,0,1-.71-.11c-.4-.09-.48-.45-.57-1.18-.11-1-.11-2.82-.11-5.15V59.7c0-3.78,0-4.5.06-5.27s.14-1.1.88-1.2a8.34,8.34,0,0,1,.84-.06.36.36,0,0,0,.35-.35c0-.35-.4-.35-.55-.35"/><path id="Fill-19" d="M76.06,48.83a5.68,5.68,0,0,1,1,.09c.86.18,1.13.53,1.19,1.57s.06,1.8.06,6.48v5.29c0,2.81,0,5.25-.15,6.5-.13.94-.29,1.43-.76,1.52a4.59,4.59,0,0,1-.88.12c-.28,0-.41.17-.41.34,0,.4.47.4.65.4.7,0,2-.05,2.6-.08h.7c.68,0,2.11.08,3.4.08.57,0,.65-.25.65-.4s-.12-.34-.4-.34-.92-.06-1.36-.12c-.77-.1-1-.59-1.06-1.52-.15-1.25-.15-3.68-.15-6.5V49.9c0-.25,0-.39.15-.43a3.7,3.7,0,0,1,1.25-.17h.14a5.08,5.08,0,0,1,3.94,1.46,6.2,6.2,0,0,1,1.67,4.51,4.85,4.85,0,0,1-5,4.73h-.16v.83h.16c4.53,0,7.69-3,7.69-7.31a5.36,5.36,0,0,0-1.58-3.69c-.47-.43-1.9-1.76-5.8-1.76-.84,0-1.8,0-2.58.06l-1.27,0-.58,0c-.71,0-1.91-.07-2.88-.07-.18,0-.65,0-.65.4a.36.36,0,0,0,.41.34"/><path id="Fill-21" d="M7.55,59.11l-.85-.64C3.82,56.34,3,55.31,3,53.72c0-1.92,1.44-3.21,3.59-3.21,2.56,0,3.42,1,3.67,1.46a4.85,4.85,0,0,1,.38,1.4c0,.2.07.51.4.51s.37-.53.37-.82c0-1.54.07-2.46.11-2.85,0-.11,0-.18,0-.22,0-.35-.34-.35-.47-.35a5,5,0,0,1-1-.14,12.69,12.69,0,0,0-2.87-.29c-3.87,0-6.47,2.16-6.47,5.37,0,2,.68,3.8,4,6.41L6.13,62c2.71,2.13,3.45,3.22,3.45,5.1s-1.44,3.7-4.2,3.7C4.25,70.84,1.56,70.56,1,68a4.71,4.71,0,0,1-.09-1c0-.17,0-.47-.37-.47s-.38.41-.4.61,0,.21,0,.35C.08,68,0,69,0,70.18c0,.78,0,1,.55,1.24h0a9.73,9.73,0,0,0,4.16.8A8.48,8.48,0,0,0,9.4,71,6,6,0,0,0,12.06,66c0-2.25-.74-4.1-4.51-6.93"/><path id="Fill-23" d="M22.69,70.42a9.93,9.93,0,0,1-1.09-.11c-.62-.1-.68-.44-.77-1.15-.11-1-.11-2.86-.11-5.23V59.65c0-3.77,0-4.45,0-5.21s.2-1.09.74-1.2a2.51,2.51,0,0,1,.58-.05.38.38,0,0,0,.34-.35c0-.35-.39-.35-.53-.35-.54,0-1.53,0-2.06,0H19c-.55,0-1.47,0-2,0-.15,0-.53,0-.53.35a.36.36,0,0,0,.34.35,4.16,4.16,0,0,1,.72.08c.38.08.6.3.66,1.18s.05,1.44.05,5.21v4.28c0,2,0,4.15-.14,5.23-.08.72-.16,1.07-.53,1.16a3.32,3.32,0,0,1-.71.11.34.34,0,0,0-.34.35c0,.16.09.35.53.35s1.43,0,2-.07l.44,0h.27c.52,0,1.72.08,2.78.08.48,0,.53-.24.53-.35a.34.34,0,0,0-.34-.35"/><path id="Fill-25" d="M120,70.39a11.12,11.12,0,0,1-1.21-.12c-.7-.1-.82-.44-.91-1.2-.12-1-.12-3-.12-5.44V53.21l3.22.06c2.6.06,3,.64,3.1,1.26l0,.26c0,.22,0,.59.37.59a.44.44,0,0,0,.41-.48c0-.11,0-.45,0-.86,0-.69.06-1.54.06-2,0-.15,0-.45-.28-.45a2.64,2.64,0,0,0-.38.05l-.41.07a13.81,13.81,0,0,1-1.91.12H111.79c-.27,0-1.33,0-2.1-.12a3.71,3.71,0,0,1-.89-.22,1,1,0,0,0-.33-.08c-.28,0-.43.59-.43.59-.06.2-.59,2.48-.59,2.77a.36.36,0,0,0,.34.36.39.39,0,0,0,.42-.32l.07-.16a3.07,3.07,0,0,1,.35-.62c.36-.53,1-.7,2.61-.73l3.74-.06V63.64c0,2.46,0,4.41-.12,5.44-.11.84-.28,1.15-.68,1.23a3.45,3.45,0,0,1-.76.11.34.34,0,0,0-.38.33c0,.36.45.36.59.36.58,0,1.73,0,2.35-.07l.45,0h.36c.61,0,1.87.08,3,.08.53,0,.59-.25.59-.36a.34.34,0,0,0-.38-.36"/><path id="Fill-27" d="M41.33,67.37c-.21,0-.38.17-.42.44a2.76,2.76,0,0,1-.59,1.3c-.56.64-1.61.69-3,.69-.76,0-3,0-3.84-.06V66.43c0-.65,0-1.42,0-2.45V59.65c0-3.77,0-4.45,0-5.21s.18-1.11.84-1.23c.28,0,.67-.06.85-.06a.37.37,0,0,0,.37-.32c0-.16-.1-.35-.57-.35s-1.78,0-2.43,0h-.84c-.6,0-1.71,0-2.59,0-.16,0-.57,0-.57.35a.39.39,0,0,0,.36.35,8.59,8.59,0,0,1,.87.06c.73.1.88.39.94,1.2s.06,1.44.06,5.21v4.28a47.55,47.55,0,0,1-.15,5.22v.08c-.12.69-.18,1-.56,1.09a3.73,3.73,0,0,1-.77.11.35.35,0,0,0-.36.35c0,.16.1.35.57.35s1,0,1.53-.06,1.26,0,2,0h.1c1.14,0,4.73.07,6.33.07,1.4,0,1.6-.09,1.81-.76h0a14.77,14.77,0,0,0,.39-2.47c0-.35-.11-.52-.33-.52"/><path id="Fill-29" d="M108.16,70.4a7,7,0,0,1-.73-.06c-1-.13-1.24-.82-1.82-2.15,0,0-6-15.28-6.18-15.8l-.14-.32c-.17-.4-.3-.68-.6-.68s-.43.25-.75,1.07l-5.27,13.8-.72,1.88c-.52,1.33-1,2.07-2,2.2a7,7,0,0,1-.73.06.38.38,0,0,0-.38.36c0,.36.48.36.64.36.7,0,1.5,0,2-.07L92,71l.77,0c.51,0,1.15.06,1.52.06s.53-.23.53-.36,0-.36-.41-.36H94.2c-.22,0-.72-.05-.72-.52a5.07,5.07,0,0,1,.37-1.63l.71-2,1.78-5L98.18,56a.81.81,0,0,1,.08-.16.81.81,0,0,1,.08.16l4.6,12.32a5.61,5.61,0,0,1,.48,1.6c0,.47-.5.52-.72.52h-.23c-.37,0-.41.25-.41.36s.07.36.53.36,1,0,1.52-.06l.77,0,.55,0c.53,0,1.79.07,2.48.07.16,0,.64,0,.64-.36a.38.38,0,0,0-.38-.36"/></g></g></g></svg>