<svg xmlns="http://www.w3.org/2000/svg" viewBox="0 0 75 75"><defs><style>.cls-1{fill:#cba233;}.cls-2{fill:none;}.cls-3{fill:#fff;}</style></defs><g id="Layer_2" data-name="Layer 2"><g id="Layer_1-2" data-name="Layer 1"><circle class="cls-1" cx="37.5" cy="37.5" r="37.5"/><path class="cls-2" d="M35.46,30.38a2,2,0,1,0-2,2A2,2,0,0,0,35.46,30.38Z"/><path class="cls-2" d="M42.22,32.37a2,2,0,1,0-2-2A2,2,0,0,0,42.22,32.37Z"/><path class="cls-2" d="M24.73,28.39a2,2,0,1,0,2,2A2,2,0,0,0,24.73,28.39Z"/><path class="cls-2" d="M24.73,28.39a2,2,0,1,0,2,2A2,2,0,0,0,24.73,28.39Z"/><path class="cls-2" d="M33.47,32.37a2,2,0,1,0-2-2A2,2,0,0,0,33.47,32.37Z"/><path class="cls-2" d="M42.22,32.37a2,2,0,1,0-2-2A2,2,0,0,0,42.22,32.37Z"/><path class="cls-3" d="M44.55,33.36a20.25,20.25,0,0,1,5.36.72l.25.08a10.07,10.07,0,0,0,.75-3.78c0-7.24-7.81-13.11-17.44-13.11S16,23.14,16,30.38a11.5,11.5,0,0,0,4.58,8.86,11.22,11.22,0,0,1-4.19,5.43s3.89,1.46,9.37-2.51A22.69,22.69,0,0,0,29,43a1.06,1.06,0,0,1,0-.19C30.76,37.26,37.13,33.36,44.55,33.36Zm-2.33-5a2,2,0,1,1-2,2A2,2,0,0,1,42.22,28.39Zm-8.75,0a2,2,0,1,1-2,2A2,2,0,0,1,33.47,28.39Zm-8.74,4a2,2,0,1,1,2-2A2,2,0,0,1,24.73,32.37Z"/><path class="cls-3" d="M55.17,53A9.47,9.47,0,0,0,59,45.7C59,41,55,37.05,49.51,35.53a18.51,18.51,0,0,0-5-.67c-6.86,0-12.58,3.6-14,8.42a8.22,8.22,0,0,0-.38,2.42c0,6,6.46,10.84,14.42,10.84a18.28,18.28,0,0,0,6.34-1.11c4.53,3.29,7.75,2.08,7.75,2.08A9.24,9.24,0,0,1,55.17,53ZM37.29,47.35a1.66,1.66,0,1,1,1.65-1.65A1.65,1.65,0,0,1,37.29,47.35Zm7.26,0A1.66,1.66,0,1,1,46.2,45.7,1.65,1.65,0,0,1,44.55,47.35Zm7.26,0a1.66,1.66,0,1,1,1.65-1.65A1.65,1.65,0,0,1,51.81,47.35Z"/></g></g></svg>