<svg xmlns="http://www.w3.org/2000/svg" viewBox="0 0 75 75"><defs><style>.cls-1{fill:#cba233;}.cls-2{fill:#fff;}</style></defs><g id="Layer_2" data-name="Layer 2"><g id="Layer_1-2" data-name="Layer 1"><circle class="cls-1" cx="37.5" cy="37.5" r="37.5"/><path class="cls-2" d="M52.68,22.32A21.5,21.5,0,1,0,59,37.5,21.37,21.37,0,0,0,52.68,22.32ZM46.93,46.93a2.34,2.34,0,0,1-1.66.69,2.37,2.37,0,0,1-1.66-.69L37.5,40.82l-6.11,6.11a2.41,2.41,0,0,1-3.32,0,2.34,2.34,0,0,1-.69-1.66,2.4,2.4,0,0,1,.69-1.66l6.12-6.11-6.12-6.11a2.37,2.37,0,0,1-.69-1.66,2.34,2.34,0,0,1,.69-1.66,2.4,2.4,0,0,1,3.31,0l6.12,6.12,6.12-6.12a2.35,2.35,0,0,1,4,1.66,2.37,2.37,0,0,1-.69,1.66L40.81,37.5l6.12,6.12a2.33,2.33,0,0,1,0,3.31Z"/></g></g></svg>